<mxfile host="Electron" modified="2024-05-02T12:23:08.435Z" agent="Mozilla/5.0 (Windows NT 10.0; Win64; x64) AppleWebKit/537.36 (KHTML, like Gecko) draw.io/24.2.5 Chrome/120.0.6099.109 Electron/28.1.0 Safari/537.36" etag="fGyvJVHTwQx7RywTxNo7" version="24.2.5" type="device">
  <diagram name="Page-1" id="Zu0OaQqJG-rJD0iMjjLI">
    <mxGraphModel dx="1050" dy="621" grid="1" gridSize="10" guides="1" tooltips="1" connect="1" arrows="1" fold="1" page="1" pageScale="1" pageWidth="850" pageHeight="1100" math="0" shadow="0">
      <root>
        <mxCell id="0" />
        <mxCell id="1" parent="0" />
        <mxCell id="-oJpxeS10ev3_pPB7Dym-1" value="" style="rounded=0;whiteSpace=wrap;html=1;" vertex="1" parent="1">
          <mxGeometry x="40" y="80" width="750" height="590" as="geometry" />
        </mxCell>
        <mxCell id="-oJpxeS10ev3_pPB7Dym-2" value="&lt;b&gt;&lt;font style=&quot;font-size: 18px;&quot;&gt;Payments page&lt;/font&gt;&lt;/b&gt;" style="text;strokeColor=none;align=center;fillColor=none;html=1;verticalAlign=middle;whiteSpace=wrap;rounded=0;" vertex="1" parent="1">
          <mxGeometry x="50" y="40" width="140" height="30" as="geometry" />
        </mxCell>
        <mxCell id="-oJpxeS10ev3_pPB7Dym-3" value="&lt;font style=&quot;font-size: 14px;&quot;&gt;payment available using :&lt;/font&gt;" style="text;strokeColor=none;align=center;fillColor=none;html=1;verticalAlign=middle;whiteSpace=wrap;rounded=0;" vertex="1" parent="1">
          <mxGeometry x="50" y="120" width="170" height="30" as="geometry" />
        </mxCell>
        <mxCell id="-oJpxeS10ev3_pPB7Dym-6" value="&lt;b&gt;&lt;font style=&quot;font-size: 14px;&quot;&gt;Credit card&lt;/font&gt;&lt;/b&gt;" style="text;strokeColor=none;align=center;fillColor=none;html=1;verticalAlign=middle;whiteSpace=wrap;rounded=0;" vertex="1" parent="1">
          <mxGeometry x="50" y="180" width="110" height="30" as="geometry" />
        </mxCell>
        <mxCell id="-oJpxeS10ev3_pPB7Dym-7" value="Visa" style="rounded=1;whiteSpace=wrap;html=1;fillColor=#dae8fc;strokeColor=#6c8ebf;" vertex="1" parent="1">
          <mxGeometry x="70" y="220" width="60" height="20" as="geometry" />
        </mxCell>
        <mxCell id="-oJpxeS10ev3_pPB7Dym-8" value="Mastercard" style="rounded=1;whiteSpace=wrap;html=1;fillColor=#fff2cc;strokeColor=#d6b656;" vertex="1" parent="1">
          <mxGeometry x="140" y="220" width="80" height="20" as="geometry" />
        </mxCell>
        <mxCell id="-oJpxeS10ev3_pPB7Dym-10" value="Rupay" style="rounded=1;whiteSpace=wrap;html=1;fillColor=#e1d5e7;strokeColor=#9673a6;" vertex="1" parent="1">
          <mxGeometry x="230" y="220" width="80" height="20" as="geometry" />
        </mxCell>
        <mxCell id="-oJpxeS10ev3_pPB7Dym-12" value="Discover" style="rounded=1;whiteSpace=wrap;html=1;fillColor=#6a00ff;strokeColor=#3700CC;fontColor=#ffffff;" vertex="1" parent="1">
          <mxGeometry x="320" y="220" width="80" height="20" as="geometry" />
        </mxCell>
        <mxCell id="-oJpxeS10ev3_pPB7Dym-14" value="&lt;b&gt;&lt;font style=&quot;font-size: 14px;&quot;&gt;Wallet&lt;/font&gt;&lt;/b&gt;" style="text;strokeColor=none;align=center;fillColor=none;html=1;verticalAlign=middle;whiteSpace=wrap;rounded=0;" vertex="1" parent="1">
          <mxGeometry x="55" y="480" width="80" height="30" as="geometry" />
        </mxCell>
        <mxCell id="-oJpxeS10ev3_pPB7Dym-16" value="SBI" style="rounded=1;whiteSpace=wrap;html=1;fillColor=#1ba1e2;strokeColor=#006EAF;fontColor=#ffffff;" vertex="1" parent="1">
          <mxGeometry x="70" y="320" width="60" height="20" as="geometry" />
        </mxCell>
        <mxCell id="-oJpxeS10ev3_pPB7Dym-17" value="BOM" style="rounded=1;whiteSpace=wrap;html=1;fillColor=#e3c800;strokeColor=#B09500;fontColor=#000000;" vertex="1" parent="1">
          <mxGeometry x="150" y="320" width="60" height="20" as="geometry" />
        </mxCell>
        <mxCell id="-oJpxeS10ev3_pPB7Dym-20" value="Etc." style="rounded=1;whiteSpace=wrap;html=1;fillColor=#dae8fc;strokeColor=#6c8ebf;" vertex="1" parent="1">
          <mxGeometry x="230" y="320" width="60" height="20" as="geometry" />
        </mxCell>
        <mxCell id="-oJpxeS10ev3_pPB7Dym-22" value="&lt;b&gt;&lt;font style=&quot;font-size: 14px;&quot;&gt;Internet Banking&lt;/font&gt;&lt;/b&gt;" style="text;strokeColor=none;align=center;fillColor=none;html=1;verticalAlign=middle;whiteSpace=wrap;rounded=0;" vertex="1" parent="1">
          <mxGeometry x="52.5" y="280" width="135" height="30" as="geometry" />
        </mxCell>
        <mxCell id="-oJpxeS10ev3_pPB7Dym-23" value="Google Pay" style="rounded=1;whiteSpace=wrap;html=1;" vertex="1" parent="1">
          <mxGeometry x="60" y="420" width="70" height="20" as="geometry" />
        </mxCell>
        <mxCell id="-oJpxeS10ev3_pPB7Dym-25" value="Phone pay" style="rounded=1;whiteSpace=wrap;html=1;" vertex="1" parent="1">
          <mxGeometry x="150" y="420" width="70" height="20" as="geometry" />
        </mxCell>
        <mxCell id="-oJpxeS10ev3_pPB7Dym-26" value="PayTm" style="rounded=1;whiteSpace=wrap;html=1;" vertex="1" parent="1">
          <mxGeometry x="235" y="420" width="70" height="20" as="geometry" />
        </mxCell>
        <mxCell id="-oJpxeS10ev3_pPB7Dym-27" value="Etc." style="rounded=1;whiteSpace=wrap;html=1;" vertex="1" parent="1">
          <mxGeometry x="325" y="420" width="70" height="20" as="geometry" />
        </mxCell>
        <mxCell id="-oJpxeS10ev3_pPB7Dym-29" value="&lt;b&gt;&lt;font style=&quot;font-size: 14px;&quot;&gt;UPI&lt;/font&gt;&lt;/b&gt;" style="text;strokeColor=none;align=center;fillColor=none;html=1;verticalAlign=middle;whiteSpace=wrap;rounded=0;" vertex="1" parent="1">
          <mxGeometry x="50" y="390" width="80" height="30" as="geometry" />
        </mxCell>
        <mxCell id="-oJpxeS10ev3_pPB7Dym-30" value="Amazon" style="rounded=1;whiteSpace=wrap;html=1;" vertex="1" parent="1">
          <mxGeometry x="60" y="520" width="70" height="20" as="geometry" />
        </mxCell>
        <mxCell id="-oJpxeS10ev3_pPB7Dym-32" value="PhonePay" style="rounded=1;whiteSpace=wrap;html=1;" vertex="1" parent="1">
          <mxGeometry x="145" y="520" width="70" height="20" as="geometry" />
        </mxCell>
        <mxCell id="-oJpxeS10ev3_pPB7Dym-33" value="Mobiwik" style="rounded=1;whiteSpace=wrap;html=1;" vertex="1" parent="1">
          <mxGeometry x="235" y="520" width="70" height="20" as="geometry" />
        </mxCell>
        <mxCell id="-oJpxeS10ev3_pPB7Dym-34" value="Go Back" style="rounded=1;whiteSpace=wrap;html=1;fillColor=#f8cecc;strokeColor=#b85450;" vertex="1" parent="1">
          <mxGeometry x="425" y="610" width="70" height="30" as="geometry" />
        </mxCell>
        <mxCell id="-oJpxeS10ev3_pPB7Dym-35" value="Pay" style="rounded=1;whiteSpace=wrap;html=1;fillColor=#60a917;fontColor=#ffffff;strokeColor=#2D7600;" vertex="1" parent="1">
          <mxGeometry x="305" y="610" width="70" height="30" as="geometry" />
        </mxCell>
      </root>
    </mxGraphModel>
  </diagram>
</mxfile>
